<svg width="475" height="200" viewBox="0 0 475 200" fill="none" xmlns="http://www.w3.org/2000/svg">
<path d="M0 152.911H100V197.206C100 198.689 98.7981 199.891 97.3154 199.891H2.68456C1.20192 199.891 0 198.689 0 197.206V152.911Z" fill="#F6F6F6"/>
<rect x="15.436" y="152.911" width="23.4899" height="46.9799" fill="#FAFAFA"/>
<path d="M100 152.911H0V136.33C0 135.109 1.20194 134.119 2.68456 134.119H97.3154C98.7981 134.119 100 135.109 100 136.33V152.911Z" fill="#8B5CF6"/>
<rect x="7.38232" y="134.119" width="25.5034" height="18.7919" fill="#E9E9E9"/>
<path d="M179.399 50.5577L179.399 54.5323L168.327 180.586L140.221 180.586L130 54.5323L130 50.5577L179.399 50.5577Z" fill="#F6F6F6"/>
<path d="M132.589 88.6008L176.562 88.6008L172.292 136.297L136.546 136.297L132.589 88.6008Z" fill="#8B5CF6"/>
<path d="M162.933 180.586L161.514 199.891L147.318 199.891L145.899 180.586L162.933 180.586Z" fill="#4D4D4D"/>
<rect x="179.399" y="49.9899" width="3.97465" height="49.3992" transform="rotate(90 179.399 49.9899)" fill="#F7F7F7"/>
<path d="M207 108.367H247V191.633C247 196.141 243.345 199.796 238.837 199.796H215.163C210.655 199.796 207 196.141 207 191.633V108.367Z" fill="#F6F6F6"/>
<path d="M207 99.3878H247V108.367H207V99.3878Z" fill="white"/>
<path d="M218.429 67.9592H227.408C231.917 67.9592 235.572 71.614 235.572 76.1225V83.0612H218.429V67.9592Z" fill="#8B5CF6"/>
<path fill-rule="evenodd" clip-rule="evenodd" d="M208.633 99.3878C208.633 92.2797 212.67 86.1148 218.577 83.0612H235.423C241.33 86.1148 245.368 92.2797 245.368 99.3878H208.633Z" fill="#D9D9D9"/>
<path d="M207 68.3673C207 63.8589 210.655 60.2041 215.163 60.2041H238.837C243.345 60.2041 247 63.8589 247 68.3673V99.3877H207V68.3673Z" fill="#8B5CF6" fill-opacity="0.3"/>
<path fill-rule="evenodd" clip-rule="evenodd" d="M343.487 12.9701H313.35V14.1145L307.247 14.1145V14.2012C292.67 15.3097 280.986 26.9188 279.548 41.5804H279.399V170.518H279.42C279.991 186.199 292.246 198.858 307.628 199.831V199.891H389.645V199.889C405.227 199.693 417.961 187.521 419.286 172.044H419.399V98.4197H419.38C419.141 92.5983 416.729 87.3429 412.939 83.4576L365.23 22.5068C363.087 20.0246 357.569 15.3397 351.129 14.3155L351.116 14.313V14.1145L343.487 14.1145V12.9701ZM393.456 87.8037L358.683 41.8817L358.672 41.8897C356.936 39.6069 354.193 38.1299 351.104 38.1213C345.837 38.1067 341.555 42.3646 341.54 47.6316C341.534 49.9891 342.383 52.1491 343.796 53.8175L377.885 98.8359C379.593 101.368 382.485 103.036 385.77 103.045C391.037 103.06 395.318 98.8021 395.333 93.5351C395.339 91.39 394.636 89.4083 393.445 87.8118L393.456 87.8037Z" fill="#F6F6F6"/>
<path d="M312.206 3.81474C312.206 1.70794 313.914 3.05176e-05 316.021 3.05176e-05H340.435C342.542 3.05176e-05 344.25 1.70794 344.25 3.81474V12.9701H312.206V3.81474Z" fill="#8B5CF6"/>
</svg>
