<svg width="24" height="25" viewBox="0 0 24 25" fill="none" xmlns="http://www.w3.org/2000/svg">
<path fill-rule="evenodd" clip-rule="evenodd" d="M16.8634 15.2002L11.9988 19.5L7.13426 15.2002C7.05196 15.1267 7.00397 15.0273 7.00023 14.9227C6.9965 14.8181 7.0373 14.7161 7.1142 14.638C7.1911 14.5599 7.2982 14.5115 7.41334 14.503C7.52848 14.4944 7.64284 14.5263 7.73275 14.592L7.76109 14.6155L11.9988 18.3623L16.2366 14.6155C16.3174 14.5442 16.4248 14.5031 16.5374 14.5002C16.6501 14.4972 16.7599 14.5327 16.8451 14.5996L16.8726 14.6238C16.9512 14.697 16.9966 14.7943 16.9998 14.8964C17.0031 14.9985 16.9639 15.098 16.8901 15.1752L16.8634 15.2002Z" fill="white"/>
<path fill-rule="evenodd" clip-rule="evenodd" d="M7.13657 8.79985L12.0012 4.5L16.8657 8.79985C16.948 8.87331 16.996 8.97265 16.9998 9.07729C17.0035 9.18193 16.9627 9.28387 16.8858 9.36201C16.8089 9.44014 16.7018 9.48849 16.5867 9.49704C16.4715 9.5056 16.3572 9.4737 16.2672 9.40796L16.2389 9.38454L12.0012 5.63766L7.7634 9.38454C7.68258 9.45575 7.57523 9.49689 7.46256 9.49983C7.34989 9.50277 7.2401 9.46729 7.15491 9.40041L7.1274 9.37623C7.04882 9.30299 7.00343 9.2057 7.00019 9.10359C6.99695 9.00148 7.03609 8.90199 7.10989 8.82478L7.13657 8.79985Z" fill="white"/>
</svg>
